<mxfile host="app.diagrams.net" modified="2023-11-06T07:54:29.722Z" agent="Mozilla/5.0 (Windows NT 10.0; Win64; x64) AppleWebKit/537.36 (KHTML, like Gecko) Chrome/119.0.0.0 Safari/537.36" etag="ZFlT1P2-tDYBPHYstiRM" version="22.0.8" type="device">
  <diagram id="C5RBs43oDa-KdzZeNtuy" name="Page-1">
    <mxGraphModel dx="1707" dy="484" grid="1" gridSize="10" guides="1" tooltips="1" connect="1" arrows="1" fold="1" page="1" pageScale="1" pageWidth="827" pageHeight="1169" math="0" shadow="0">
      <root>
        <mxCell id="WIyWlLk6GJQsqaUBKTNV-0" />
        <mxCell id="WIyWlLk6GJQsqaUBKTNV-1" parent="WIyWlLk6GJQsqaUBKTNV-0" />
        <mxCell id="5Z0VFm807nxaMh2xXl_1-2" style="edgeStyle=orthogonalEdgeStyle;rounded=0;orthogonalLoop=1;jettySize=auto;html=1;" edge="1" parent="WIyWlLk6GJQsqaUBKTNV-1" source="5Z0VFm807nxaMh2xXl_1-1">
          <mxGeometry relative="1" as="geometry">
            <mxPoint x="-490" y="350" as="targetPoint" />
          </mxGeometry>
        </mxCell>
        <mxCell id="5Z0VFm807nxaMh2xXl_1-1" value="start" style="ellipse;whiteSpace=wrap;html=1;" vertex="1" parent="WIyWlLk6GJQsqaUBKTNV-1">
          <mxGeometry x="-550" y="190" width="120" height="70" as="geometry" />
        </mxCell>
        <mxCell id="5Z0VFm807nxaMh2xXl_1-4" style="edgeStyle=orthogonalEdgeStyle;rounded=0;orthogonalLoop=1;jettySize=auto;html=1;exitX=0.5;exitY=1;exitDx=0;exitDy=0;" edge="1" parent="WIyWlLk6GJQsqaUBKTNV-1" source="5Z0VFm807nxaMh2xXl_1-3">
          <mxGeometry relative="1" as="geometry">
            <mxPoint x="-490" y="490" as="targetPoint" />
          </mxGeometry>
        </mxCell>
        <mxCell id="5Z0VFm807nxaMh2xXl_1-3" value="nhap a,b,c" style="shape=parallelogram;perimeter=parallelogramPerimeter;whiteSpace=wrap;html=1;fixedSize=1;" vertex="1" parent="WIyWlLk6GJQsqaUBKTNV-1">
          <mxGeometry x="-550" y="350" width="120" height="60" as="geometry" />
        </mxCell>
        <mxCell id="5Z0VFm807nxaMh2xXl_1-6" value="true" style="edgeStyle=orthogonalEdgeStyle;rounded=0;orthogonalLoop=1;jettySize=auto;html=1;exitX=0;exitY=0.5;exitDx=0;exitDy=0;" edge="1" parent="WIyWlLk6GJQsqaUBKTNV-1" source="5Z0VFm807nxaMh2xXl_1-5">
          <mxGeometry relative="1" as="geometry">
            <mxPoint x="-620" y="540" as="targetPoint" />
          </mxGeometry>
        </mxCell>
        <mxCell id="5Z0VFm807nxaMh2xXl_1-23" value="false" style="edgeStyle=orthogonalEdgeStyle;rounded=0;orthogonalLoop=1;jettySize=auto;html=1;exitX=1;exitY=0.5;exitDx=0;exitDy=0;" edge="1" parent="WIyWlLk6GJQsqaUBKTNV-1" source="5Z0VFm807nxaMh2xXl_1-5">
          <mxGeometry relative="1" as="geometry">
            <mxPoint x="-370" y="540" as="targetPoint" />
          </mxGeometry>
        </mxCell>
        <mxCell id="5Z0VFm807nxaMh2xXl_1-5" value="a=0" style="rhombus;whiteSpace=wrap;html=1;" vertex="1" parent="WIyWlLk6GJQsqaUBKTNV-1">
          <mxGeometry x="-530" y="500" width="80" height="80" as="geometry" />
        </mxCell>
        <mxCell id="5Z0VFm807nxaMh2xXl_1-10" value="true" style="edgeStyle=orthogonalEdgeStyle;rounded=0;orthogonalLoop=1;jettySize=auto;html=1;" edge="1" parent="WIyWlLk6GJQsqaUBKTNV-1" source="5Z0VFm807nxaMh2xXl_1-7">
          <mxGeometry relative="1" as="geometry">
            <mxPoint x="-750" y="710" as="targetPoint" />
          </mxGeometry>
        </mxCell>
        <mxCell id="5Z0VFm807nxaMh2xXl_1-18" value="false" style="edgeStyle=orthogonalEdgeStyle;rounded=0;orthogonalLoop=1;jettySize=auto;html=1;exitX=0.5;exitY=1;exitDx=0;exitDy=0;" edge="1" parent="WIyWlLk6GJQsqaUBKTNV-1" source="5Z0VFm807nxaMh2xXl_1-7">
          <mxGeometry relative="1" as="geometry">
            <mxPoint x="-665" y="620" as="targetPoint" />
          </mxGeometry>
        </mxCell>
        <mxCell id="5Z0VFm807nxaMh2xXl_1-7" value="b =0" style="rhombus;whiteSpace=wrap;html=1;" vertex="1" parent="WIyWlLk6GJQsqaUBKTNV-1">
          <mxGeometry x="-710" y="500" width="90" height="80" as="geometry" />
        </mxCell>
        <mxCell id="5Z0VFm807nxaMh2xXl_1-12" value="true" style="edgeStyle=orthogonalEdgeStyle;rounded=0;orthogonalLoop=1;jettySize=auto;html=1;exitX=0.5;exitY=1;exitDx=0;exitDy=0;" edge="1" parent="WIyWlLk6GJQsqaUBKTNV-1" source="5Z0VFm807nxaMh2xXl_1-11">
          <mxGeometry relative="1" as="geometry">
            <mxPoint x="-750" y="840" as="targetPoint" />
          </mxGeometry>
        </mxCell>
        <mxCell id="5Z0VFm807nxaMh2xXl_1-11" value="c=0" style="rhombus;whiteSpace=wrap;html=1;" vertex="1" parent="WIyWlLk6GJQsqaUBKTNV-1">
          <mxGeometry x="-790" y="710" width="80" height="80" as="geometry" />
        </mxCell>
        <mxCell id="5Z0VFm807nxaMh2xXl_1-86" style="edgeStyle=orthogonalEdgeStyle;rounded=0;orthogonalLoop=1;jettySize=auto;html=1;exitX=0.5;exitY=1;exitDx=0;exitDy=0;entryX=0;entryY=0;entryDx=0;entryDy=0;" edge="1" parent="WIyWlLk6GJQsqaUBKTNV-1" source="5Z0VFm807nxaMh2xXl_1-13" target="5Z0VFm807nxaMh2xXl_1-60">
          <mxGeometry relative="1" as="geometry" />
        </mxCell>
        <mxCell id="5Z0VFm807nxaMh2xXl_1-13" value="phương trình vô&amp;nbsp;&lt;br&gt;số nghiệm" style="shape=parallelogram;perimeter=parallelogramPerimeter;whiteSpace=wrap;html=1;fixedSize=1;" vertex="1" parent="WIyWlLk6GJQsqaUBKTNV-1">
          <mxGeometry x="-810" y="840" width="120" height="60" as="geometry" />
        </mxCell>
        <mxCell id="5Z0VFm807nxaMh2xXl_1-68" style="edgeStyle=orthogonalEdgeStyle;rounded=0;orthogonalLoop=1;jettySize=auto;html=1;entryX=0;entryY=0.5;entryDx=0;entryDy=0;" edge="1" parent="WIyWlLk6GJQsqaUBKTNV-1" source="5Z0VFm807nxaMh2xXl_1-15" target="5Z0VFm807nxaMh2xXl_1-60">
          <mxGeometry relative="1" as="geometry" />
        </mxCell>
        <mxCell id="5Z0VFm807nxaMh2xXl_1-15" value="phương trình vô nghiệm" style="shape=parallelogram;perimeter=parallelogramPerimeter;whiteSpace=wrap;html=1;fixedSize=1;" vertex="1" parent="WIyWlLk6GJQsqaUBKTNV-1">
          <mxGeometry x="-670" y="840" width="120" height="60" as="geometry" />
        </mxCell>
        <mxCell id="5Z0VFm807nxaMh2xXl_1-16" value="false" style="edgeStyle=orthogonalEdgeStyle;rounded=0;orthogonalLoop=1;jettySize=auto;html=1;entryX=0.592;entryY=-0.067;entryDx=0;entryDy=0;entryPerimeter=0;" edge="1" parent="WIyWlLk6GJQsqaUBKTNV-1" source="5Z0VFm807nxaMh2xXl_1-11" target="5Z0VFm807nxaMh2xXl_1-15">
          <mxGeometry relative="1" as="geometry" />
        </mxCell>
        <mxCell id="5Z0VFm807nxaMh2xXl_1-21" style="edgeStyle=orthogonalEdgeStyle;rounded=0;orthogonalLoop=1;jettySize=auto;html=1;" edge="1" parent="WIyWlLk6GJQsqaUBKTNV-1" source="5Z0VFm807nxaMh2xXl_1-19">
          <mxGeometry relative="1" as="geometry">
            <mxPoint x="-500" y="720" as="targetPoint" />
          </mxGeometry>
        </mxCell>
        <mxCell id="5Z0VFm807nxaMh2xXl_1-19" value="x = -c/b" style="rounded=0;whiteSpace=wrap;html=1;" vertex="1" parent="WIyWlLk6GJQsqaUBKTNV-1">
          <mxGeometry x="-710" y="620" width="100" height="40" as="geometry" />
        </mxCell>
        <mxCell id="5Z0VFm807nxaMh2xXl_1-67" style="edgeStyle=orthogonalEdgeStyle;rounded=0;orthogonalLoop=1;jettySize=auto;html=1;" edge="1" parent="WIyWlLk6GJQsqaUBKTNV-1" source="5Z0VFm807nxaMh2xXl_1-22" target="5Z0VFm807nxaMh2xXl_1-60">
          <mxGeometry relative="1" as="geometry" />
        </mxCell>
        <mxCell id="5Z0VFm807nxaMh2xXl_1-22" value="x" style="shape=parallelogram;perimeter=parallelogramPerimeter;whiteSpace=wrap;html=1;fixedSize=1;" vertex="1" parent="WIyWlLk6GJQsqaUBKTNV-1">
          <mxGeometry x="-550" y="720" width="90" height="40" as="geometry" />
        </mxCell>
        <mxCell id="5Z0VFm807nxaMh2xXl_1-27" value="false" style="edgeStyle=orthogonalEdgeStyle;rounded=0;orthogonalLoop=1;jettySize=auto;html=1;" edge="1" parent="WIyWlLk6GJQsqaUBKTNV-1" source="5Z0VFm807nxaMh2xXl_1-26">
          <mxGeometry relative="1" as="geometry">
            <mxPoint x="-320" y="630" as="targetPoint" />
          </mxGeometry>
        </mxCell>
        <mxCell id="5Z0VFm807nxaMh2xXl_1-28" value="true" style="edgeStyle=orthogonalEdgeStyle;rounded=0;orthogonalLoop=1;jettySize=auto;html=1;exitX=1;exitY=0.5;exitDx=0;exitDy=0;" edge="1" parent="WIyWlLk6GJQsqaUBKTNV-1" source="5Z0VFm807nxaMh2xXl_1-26">
          <mxGeometry relative="1" as="geometry">
            <mxPoint x="-230" y="540" as="targetPoint" />
          </mxGeometry>
        </mxCell>
        <mxCell id="5Z0VFm807nxaMh2xXl_1-26" value="b^2 -4ac=0" style="rhombus;whiteSpace=wrap;html=1;" vertex="1" parent="WIyWlLk6GJQsqaUBKTNV-1">
          <mxGeometry x="-360" y="500" width="80" height="80" as="geometry" />
        </mxCell>
        <mxCell id="5Z0VFm807nxaMh2xXl_1-30" style="edgeStyle=orthogonalEdgeStyle;rounded=0;orthogonalLoop=1;jettySize=auto;html=1;exitX=1;exitY=0.5;exitDx=0;exitDy=0;" edge="1" parent="WIyWlLk6GJQsqaUBKTNV-1" source="5Z0VFm807nxaMh2xXl_1-29">
          <mxGeometry relative="1" as="geometry">
            <mxPoint x="-80" y="590" as="targetPoint" />
          </mxGeometry>
        </mxCell>
        <mxCell id="5Z0VFm807nxaMh2xXl_1-29" value="x=-b/2a" style="rounded=0;whiteSpace=wrap;html=1;" vertex="1" parent="WIyWlLk6GJQsqaUBKTNV-1">
          <mxGeometry x="-230" y="510" width="120" height="50" as="geometry" />
        </mxCell>
        <mxCell id="5Z0VFm807nxaMh2xXl_1-83" style="edgeStyle=orthogonalEdgeStyle;rounded=0;orthogonalLoop=1;jettySize=auto;html=1;exitX=0.5;exitY=1;exitDx=0;exitDy=0;entryX=1;entryY=1;entryDx=0;entryDy=0;" edge="1" parent="WIyWlLk6GJQsqaUBKTNV-1">
          <mxGeometry relative="1" as="geometry">
            <mxPoint x="-376.28359312880724" y="1111.6342712474618" as="targetPoint" />
            <mxPoint x="-63.71" y="628.35" as="sourcePoint" />
            <Array as="points">
              <mxPoint x="-63.71" y="871.35" />
              <mxPoint x="-77.71000000000001" y="871.35" />
              <mxPoint x="-77.71000000000001" y="1111.35" />
            </Array>
          </mxGeometry>
        </mxCell>
        <mxCell id="5Z0VFm807nxaMh2xXl_1-31" value="x" style="shape=parallelogram;perimeter=parallelogramPerimeter;whiteSpace=wrap;html=1;fixedSize=1;" vertex="1" parent="WIyWlLk6GJQsqaUBKTNV-1">
          <mxGeometry x="-120" y="585" width="90" height="50" as="geometry" />
        </mxCell>
        <mxCell id="5Z0VFm807nxaMh2xXl_1-33" value="ffalse" style="edgeStyle=orthogonalEdgeStyle;rounded=0;orthogonalLoop=1;jettySize=auto;html=1;" edge="1" parent="WIyWlLk6GJQsqaUBKTNV-1">
          <mxGeometry relative="1" as="geometry">
            <mxPoint x="-200" y="670" as="targetPoint" />
            <mxPoint x="-280" y="670" as="sourcePoint" />
          </mxGeometry>
        </mxCell>
        <mxCell id="5Z0VFm807nxaMh2xXl_1-35" value="phương trình vô&lt;br&gt;nghiệm" style="rounded=0;whiteSpace=wrap;html=1;" vertex="1" parent="WIyWlLk6GJQsqaUBKTNV-1">
          <mxGeometry x="-200" y="650" width="100" height="40" as="geometry" />
        </mxCell>
        <mxCell id="5Z0VFm807nxaMh2xXl_1-54" value="true" style="edgeStyle=orthogonalEdgeStyle;rounded=0;orthogonalLoop=1;jettySize=auto;html=1;exitX=0.5;exitY=1;exitDx=0;exitDy=0;" edge="1" parent="WIyWlLk6GJQsqaUBKTNV-1" source="5Z0VFm807nxaMh2xXl_1-45">
          <mxGeometry relative="1" as="geometry">
            <mxPoint x="-240" y="830" as="targetPoint" />
            <Array as="points">
              <mxPoint x="-320" y="770" />
              <mxPoint x="-240" y="770" />
            </Array>
          </mxGeometry>
        </mxCell>
        <mxCell id="5Z0VFm807nxaMh2xXl_1-45" value="b^2 -4ac&amp;gt;0" style="rhombus;whiteSpace=wrap;html=1;" vertex="1" parent="WIyWlLk6GJQsqaUBKTNV-1">
          <mxGeometry x="-360" y="630" width="80" height="80" as="geometry" />
        </mxCell>
        <mxCell id="5Z0VFm807nxaMh2xXl_1-56" style="edgeStyle=orthogonalEdgeStyle;rounded=0;orthogonalLoop=1;jettySize=auto;html=1;exitX=0.5;exitY=1;exitDx=0;exitDy=0;" edge="1" parent="WIyWlLk6GJQsqaUBKTNV-1" source="5Z0VFm807nxaMh2xXl_1-52">
          <mxGeometry relative="1" as="geometry">
            <mxPoint x="-220" y="940" as="targetPoint" />
          </mxGeometry>
        </mxCell>
        <mxCell id="5Z0VFm807nxaMh2xXl_1-52" value="x1 =( b^2 + căn 2 của (b^2 -4ac))/2a&lt;br&gt;x2=(b^2 - căn 2 của (b^2-4ac))/2a" style="rounded=0;whiteSpace=wrap;html=1;" vertex="1" parent="WIyWlLk6GJQsqaUBKTNV-1">
          <mxGeometry x="-280" y="830" width="120" height="60" as="geometry" />
        </mxCell>
        <mxCell id="5Z0VFm807nxaMh2xXl_1-70" style="edgeStyle=orthogonalEdgeStyle;rounded=0;orthogonalLoop=1;jettySize=auto;html=1;exitX=0.5;exitY=1;exitDx=0;exitDy=0;entryX=1;entryY=0.5;entryDx=0;entryDy=0;" edge="1" parent="WIyWlLk6GJQsqaUBKTNV-1" source="5Z0VFm807nxaMh2xXl_1-57" target="5Z0VFm807nxaMh2xXl_1-60">
          <mxGeometry relative="1" as="geometry">
            <mxPoint x="-170" y="1100" as="targetPoint" />
          </mxGeometry>
        </mxCell>
        <mxCell id="5Z0VFm807nxaMh2xXl_1-57" value="x1, x2" style="shape=parallelogram;perimeter=parallelogramPerimeter;whiteSpace=wrap;html=1;fixedSize=1;" vertex="1" parent="WIyWlLk6GJQsqaUBKTNV-1">
          <mxGeometry x="-280" y="950" width="120" height="60" as="geometry" />
        </mxCell>
        <mxCell id="5Z0VFm807nxaMh2xXl_1-60" value="end" style="ellipse;whiteSpace=wrap;html=1;" vertex="1" parent="WIyWlLk6GJQsqaUBKTNV-1">
          <mxGeometry x="-490" y="1050" width="120" height="80" as="geometry" />
        </mxCell>
      </root>
    </mxGraphModel>
  </diagram>
</mxfile>
